<?xml version="1.0" encoding="UTF-8"?>
<svg width="512pt" height="512pt" viewBox="0 0 512 512" xmlns="http://www.w3.org/2000/svg">
<path d="m256 0c-141.16 0-256 114.84-256 256s114.84 256 256 256 256-114.84 256-256-114.84-256-256-256zm112 277.33h-90.668v90.668c0 11.777-9.5547 21.332-21.332 21.332s-21.332-9.5547-21.332-21.332v-90.668h-90.668c-11.777 0-21.332-9.5547-21.332-21.332s9.5547-21.332 21.332-21.332h90.668v-90.668c0-11.777 9.5547-21.332 21.332-21.332s21.332 9.5547 21.332 21.332v90.668h90.668c11.777 0 21.332 9.5547 21.332 21.332s-9.5547 21.332-21.332 21.332z"/>
</svg>
